# xmcd
#
# Track frame offsets:
# 150
# 14647
# 29050
# 40930
# 64555
# 79625
# 96155
# 109352
# 125565
# 143772
# 166285
# 175822
# 194262
# 203267
#
# Disc length: 2988 seconds
#
#
# Revision: 0
# Processed by: cddbd v1.5.1PL2 Copyright (c) Steve Scherf et al.
# Submitted via: FreeRIP 2.945 
#
DISCID=bc0baa0e
DTITLE=Joel Nascimento - Joal Nascimento Relendo Jacob do Bandolin
DYEAR=1998
DGENRE=Chorinho
TTITLE0=Noites Cariocas - Jacob do Bandolin
TTITLE1=Mimosa - Jacob do Bandolin
TTITLE2=Reminiscências - Jacob do Bandolin
TTITLE3=Bole-Bole - Jacob do Bandolin
TTITLE4=Doce de Côco - Jacob do Bandolin
TTITLE5=Salões Imperiais - Jacob do Bandolin
TTITLE6=Remelexo - Jacob do Bandolin
TTITLE7=Dolente - Jacob do Bandolin
TTITLE8=Alvorada - Jacob do Bandolin
TTITLE9=Vibrações - Jacob do Bandolin
TTITLE10=Diabinho maluco - Jacob do Bandolin
TTITLE11=Cristal - Jacob do Bandolin
TTITLE12=La Duchesse - Jacob do Bandolin
TTITLE13=Feia - Jacob do Bandolin
EXTD=Joel Nascimento -  Bandolim\nLuiz Otavio Braga - Arranjos e violão 7\nLuiz Flavio - Violão 6\nHenrique Cazes - Cavaquinho\nBeto Cazes - Ritmo
EXTT0=
EXTT1=
EXTT2=
EXTT3=
EXTT4=
EXTT5=
EXTT6=
EXTT7=
EXTT8=
EXTT9=
EXTT10=
EXTT11=
EXTT12=
EXTT13=
PLAYORDER=
